<?xml version="1.0" encoding="UTF-8"?>
<svg
  version="1.1"
  xmlns="http://www.w3.org/2000/svg"
  width="320"
  height="320"
  viewBox="25 0 320 320"
>
<path d="M0,0 L33,0 L33,1 L39,1 L39,2 L43,2 L43,3 L50,3 L50,4 L54,4 L54,5 L56,5 L56,6 L58,6 L58,7 L62,7 L62,8 L64,8 L64,9 L67,9 L67,10 L69,10 L69,11 L73,11 L73,12 L75,12 L75,13 L76,13 L76,14 L78,14 L78,15 L79,15 L79,16 L82,16 L82,17 L83,17 L83,18 L84,18 L84,19 L86,19 L86,20 L88,20 L88,21 L90,21 L90,22 L92,22 L92,23 L93,23 L93,24 L95,24 L95,25 L96,25 L96,26 L97,26 L97,27 L98,27 L98,28 L99,28 L99,29 L101,29 L101,30 L102,30 L102,31 L103,31 L103,32 L104,32 L104,33 L105,33 L105,34 L106,34 L106,35 L107,35 L107,36 L109,36 L109,37 L110,37 L110,38 L111,38 L111,39 L112,39 L112,40 L113,40 L113,41 L114,41 L114,42 L115,42 L115,44 L116,44 L116,45 L117,45 L117,46 L118,46 L118,47 L119,47 L119,48 L120,48 L120,50 L121,50 L121,51 L122,51 L122,52 L123,52 L123,54 L124,54 L124,55 L125,55 L125,56 L126,56 L126,57 L127,57 L127,58 L128,58 L128,60 L129,60 L129,62 L130,62 L130,64 L131,64 L131,65 L132,65 L132,67 L133,67 L133,69 L134,69 L134,71 L135,71 L135,73 L136,73 L136,74 L137,74 L137,76 L138,76 L138,77 L139,77 L139,80 L140,80 L140,83 L141,83 L141,85 L142,85 L142,89 L143,89 L143,91 L144,91 L144,95 L145,95 L145,97 L146,97 L146,100 L147,100 L147,107 L148,107 L148,113 L149,113 L149,118 L150,118 L150,151 L149,151 L149,157 L148,157 L148,161 L147,161 L147,168 L146,168 L146,172 L145,172 L145,174 L144,174 L144,176 L143,176 L143,180 L142,180 L142,182 L141,182 L141,185 L140,185 L140,187 L139,187 L139,191 L138,191 L138,193 L137,193 L137,194 L136,194 L136,196 L135,196 L135,197 L134,197 L134,200 L133,200 L133,201 L132,201 L132,202 L131,202 L131,204 L130,204 L130,206 L129,206 L129,208 L128,208 L128,210 L127,210 L127,211 L126,211 L126,213 L125,213 L125,214 L124,214 L124,215 L123,215 L123,216 L122,216 L122,217 L121,217 L121,219 L120,219 L120,220 L119,220 L119,221 L118,221 L118,222 L117,222 L117,223 L116,223 L116,224 L115,224 L115,225 L114,225 L114,227 L113,227 L113,228 L112,228 L112,229 L111,229 L111,230 L110,230 L110,231 L109,231 L109,232 L108,232 L108,233 L106,233 L106,234 L105,234 L105,235 L104,235 L104,236 L103,236 L103,237 L102,237 L102,238 L100,238 L100,239 L99,239 L99,240 L98,240 L98,241 L96,241 L96,242 L95,242 L95,243 L94,243 L94,244 L93,244 L93,245 L92,245 L92,246 L90,246 L90,247 L88,247 L88,248 L86,248 L86,249 L85,249 L85,250 L83,250 L83,251 L81,251 L81,252 L79,252 L79,253 L77,253 L77,254 L76,254 L76,255 L74,255 L74,256 L73,256 L73,257 L70,257 L70,258 L67,258 L67,259 L65,259 L65,260 L61,260 L61,261 L59,261 L59,262 L55,262 L55,263 L53,263 L53,264 L50,264 L50,265 L43,265 L43,266 L37,266 L37,267 L32,267 L32,268 L-1,268 L-1,267 L-7,267 L-7,266 L-11,266 L-11,265 L-18,265 L-18,264 L-22,264 L-22,263 L-24,263 L-24,262 L-26,262 L-26,261 L-30,261 L-30,260 L-32,260 L-32,259 L-35,259 L-35,258 L-37,258 L-37,257 L-41,257 L-41,256 L-43,256 L-43,255 L-44,255 L-44,254 L-46,254 L-46,253 L-47,253 L-47,252 L-50,252 L-50,251 L-51,251 L-51,250 L-52,250 L-52,249 L-54,249 L-54,248 L-56,248 L-56,247 L-58,247 L-58,246 L-60,246 L-60,245 L-61,245 L-61,244 L-63,244 L-63,243 L-64,243 L-64,242 L-65,242 L-65,241 L-66,241 L-66,240 L-67,240 L-67,239 L-69,239 L-69,238 L-70,238 L-70,237 L-71,237 L-71,236 L-72,236 L-72,235 L-73,235 L-73,234 L-74,234 L-74,233 L-75,233 L-75,232 L-77,232 L-77,231 L-78,231 L-78,230 L-79,230 L-79,229 L-80,229 L-80,228 L-81,228 L-81,227 L-82,227 L-82,226 L-83,226 L-83,224 L-84,224 L-84,223 L-85,223 L-85,222 L-86,222 L-86,221 L-87,221 L-87,220 L-88,220 L-88,218 L-89,218 L-89,217 L-90,217 L-90,216 L-91,216 L-91,214 L-92,214 L-92,213 L-93,213 L-93,212 L-94,212 L-94,211 L-95,211 L-95,210 L-96,210 L-96,208 L-97,208 L-97,206 L-98,206 L-98,204 L-99,204 L-99,203 L-100,203 L-100,201 L-101,201 L-101,199 L-102,199 L-102,197 L-103,197 L-103,195 L-104,195 L-104,194 L-105,194 L-105,192 L-106,192 L-106,191 L-107,191 L-107,188 L-108,188 L-108,185 L-109,185 L-109,183 L-110,183 L-110,179 L-111,179 L-111,177 L-112,177 L-112,173 L-113,173 L-113,171 L-114,171 L-114,168 L-115,168 L-115,161 L-116,161 L-116,155 L-117,155 L-117,150 L-118,150 L-118,117 L-117,117 L-117,111 L-116,111 L-116,107 L-115,107 L-115,100 L-114,100 L-114,96 L-113,96 L-113,94 L-112,94 L-112,92 L-111,92 L-111,88 L-110,88 L-110,86 L-109,86 L-109,83 L-108,83 L-108,81 L-107,81 L-107,77 L-106,77 L-106,75 L-105,75 L-105,74 L-104,74 L-104,72 L-103,72 L-103,71 L-102,71 L-102,68 L-101,68 L-101,67 L-100,67 L-100,66 L-99,66 L-99,64 L-98,64 L-98,62 L-97,62 L-97,60 L-96,60 L-96,58 L-95,58 L-95,57 L-94,57 L-94,55 L-93,55 L-93,54 L-92,54 L-92,53 L-91,53 L-91,52 L-90,52 L-90,51 L-89,51 L-89,49 L-88,49 L-88,48 L-87,48 L-87,47 L-86,47 L-86,46 L-85,46 L-85,45 L-84,45 L-84,44 L-83,44 L-83,43 L-82,43 L-82,41 L-81,41 L-81,40 L-80,40 L-80,39 L-79,39 L-79,38 L-78,38 L-78,37 L-77,37 L-77,36 L-76,36 L-76,35 L-74,35 L-74,34 L-73,34 L-73,33 L-72,33 L-72,32 L-71,32 L-71,31 L-70,31 L-70,30 L-68,30 L-68,29 L-67,29 L-67,28 L-66,28 L-66,27 L-64,27 L-64,26 L-63,26 L-63,25 L-62,25 L-62,24 L-61,24 L-61,23 L-60,23 L-60,22 L-58,22 L-58,21 L-56,21 L-56,20 L-54,20 L-54,19 L-53,19 L-53,18 L-51,18 L-51,17 L-49,17 L-49,16 L-47,16 L-47,15 L-45,15 L-45,14 L-44,14 L-44,13 L-42,13 L-42,12 L-41,12 L-41,11 L-38,11 L-38,10 L-35,10 L-35,9 L-33,9 L-33,8 L-29,8 L-29,7 L-27,7 L-27,6 L-23,6 L-23,5 L-21,5 L-21,4 L-18,4 L-18,3 L-11,3 L-11,2 L-5,2 L-5,1 L0,1 Z " fill="#96C3E3" transform="translate(169,26)"/>
<path d="M0,0 L11,0 L11,1 L12,1 L12,2 L13,2 L13,13 L14,13 L14,12 L15,12 L15,11 L16,11 L16,10 L17,10 L17,9 L19,9 L19,8 L20,8 L20,7 L21,7 L21,6 L22,6 L22,5 L23,5 L23,4 L24,4 L24,3 L25,3 L25,2 L60,2 L60,3 L62,3 L62,4 L63,4 L63,5 L64,5 L64,6 L65,6 L65,8 L67,8 L67,9 L68,9 L68,10 L69,10 L69,11 L70,11 L70,12 L71,12 L71,13 L73,13 L73,14 L74,14 L74,15 L75,15 L75,16 L76,16 L76,17 L78,17 L78,18 L79,18 L79,19 L81,19 L81,20 L82,20 L82,21 L83,21 L83,22 L84,22 L84,23 L85,23 L85,24 L86,24 L86,25 L87,25 L87,26 L88,26 L88,27 L89,27 L89,28 L90,28 L90,29 L91,29 L91,30 L93,30 L93,31 L94,31 L94,32 L95,32 L95,33 L96,33 L96,34 L97,34 L97,35 L99,35 L99,36 L100,36 L100,37 L101,37 L101,38 L102,38 L102,39 L103,39 L103,40 L104,40 L104,41 L105,41 L105,42 L106,42 L106,43 L107,43 L107,44 L108,44 L108,45 L109,45 L109,46 L110,46 L110,47 L111,47 L111,48 L112,48 L112,49 L113,49 L113,50 L114,50 L114,51 L112,51 L112,52 L107,52 L107,51 L106,51 L106,52 L102,52 L102,51 L91,51 L91,64 L90,64 L90,66 L89,66 L89,68 L88,68 L88,71 L87,71 L87,74 L86,74 L86,76 L85,76 L85,78 L84,78 L84,80 L83,80 L83,81 L82,81 L82,82 L81,82 L81,84 L80,84 L80,85 L79,85 L79,86 L78,86 L78,87 L77,87 L77,88 L76,88 L76,89 L75,89 L75,90 L74,90 L74,91 L73,91 L73,92 L71,92 L71,93 L70,93 L70,94 L69,94 L69,95 L67,95 L67,96 L66,96 L66,97 L64,97 L64,98 L66,98 L66,99 L67,99 L67,100 L69,100 L69,101 L70,101 L70,102 L71,102 L71,103 L72,103 L72,104 L73,104 L73,105 L74,105 L74,106 L75,106 L75,107 L76,107 L76,108 L77,108 L77,109 L78,109 L78,110 L79,110 L79,111 L80,111 L80,112 L81,112 L81,113 L82,113 L82,114 L83,114 L83,116 L84,116 L84,117 L85,117 L85,118 L86,118 L86,119 L87,119 L87,120 L88,120 L88,122 L89,122 L89,123 L90,123 L90,124 L91,124 L91,126 L92,126 L92,128 L93,128 L93,129 L94,129 L94,131 L95,131 L95,134 L96,134 L96,136 L97,136 L97,138 L98,138 L98,145 L99,145 L99,151 L100,151 L100,159 L99,159 L99,165 L98,165 L98,168 L97,168 L97,169 L96,169 L96,171 L95,171 L95,173 L94,173 L94,175 L93,175 L93,176 L92,176 L92,178 L91,178 L91,179 L90,179 L90,180 L89,180 L89,181 L88,181 L88,182 L87,182 L87,183 L86,183 L86,185 L85,185 L85,186 L84,186 L84,187 L82,187 L82,188 L81,188 L81,189 L80,189 L80,190 L79,190 L79,191 L77,191 L77,192 L76,192 L76,193 L75,193 L75,194 L73,194 L73,195 L72,195 L72,196 L71,196 L71,197 L69,197 L69,198 L68,198 L68,199 L67,199 L67,200 L64,200 L64,201 L61,201 L61,202 L57,202 L57,203 L30,203 L30,202 L25,202 L25,201 L23,201 L23,200 L20,200 L20,199 L19,199 L19,198 L18,198 L18,197 L16,197 L16,196 L15,196 L15,195 L14,195 L14,194 L13,194 L13,193 L11,193 L11,192 L10,192 L10,191 L9,191 L9,190 L7,190 L7,189 L6,189 L6,188 L5,188 L5,187 L4,187 L4,186 L3,186 L3,185 L1,185 L1,184 L0,184 L0,183 L-1,183 L-1,181 L-2,181 L-2,180 L-3,180 L-3,179 L-4,179 L-4,178 L-5,178 L-5,176 L-6,176 L-6,175 L-7,175 L-7,173 L-8,173 L-8,171 L-9,171 L-9,169 L-10,169 L-10,167 L-11,167 L-11,164 L-12,164 L-12,158 L-13,158 L-13,152 L-12,152 L-12,145 L-11,145 L-11,138 L-10,138 L-10,136 L-9,136 L-9,134 L-8,134 L-8,132 L-7,132 L-7,130 L-6,130 L-6,128 L-5,128 L-5,126 L-4,126 L-4,125 L-3,125 L-3,123 L-2,123 L-2,122 L-1,122 L-1,121 L0,121 L0,119 L1,119 L1,118 L2,118 L2,117 L3,117 L3,116 L4,116 L4,115 L5,115 L5,113 L6,113 L6,112 L7,112 L7,111 L8,111 L8,110 L9,110 L9,109 L10,109 L10,108 L11,108 L11,107 L12,107 L12,106 L13,106 L13,105 L14,105 L14,104 L15,104 L15,103 L16,103 L16,102 L17,102 L17,101 L19,101 L19,100 L20,100 L20,99 L21,99 L21,98 L20,98 L20,97 L19,97 L19,96 L17,96 L17,95 L16,95 L16,94 L15,94 L15,93 L13,93 L13,92 L12,92 L12,91 L10,91 L10,90 L9,90 L9,89 L8,89 L8,88 L7,88 L7,87 L6,87 L6,86 L5,86 L5,85 L4,85 L4,83 L3,83 L3,82 L2,82 L2,80 L1,80 L1,79 L0,79 L0,77 L-1,77 L-1,75 L-2,75 L-2,73 L-3,73 L-3,72 L-4,72 L-4,67 L-5,67 L-5,65 L-6,65 L-6,62 L-7,62 L-7,51 L-28,51 L-28,49 L-27,49 L-27,48 L-26,48 L-26,47 L-25,47 L-25,46 L-24,46 L-24,45 L-23,45 L-23,44 L-22,44 L-22,43 L-21,43 L-21,42 L-20,42 L-20,41 L-19,41 L-19,40 L-18,40 L-18,39 L-17,39 L-17,38 L-16,38 L-16,37 L-15,37 L-15,36 L-14,36 L-14,35 L-13,35 L-13,34 L-11,34 L-11,33 L-10,33 L-10,32 L-9,32 L-9,31 L-8,31 L-8,30 L-6,30 L-6,29 L-5,29 L-5,28 L-4,28 L-4,27 L-3,27 L-3,26 L-2,26 L-2,2 L-1,2 L-1,1 L0,1 Z " fill="#FEFEFE" transform="translate(144,56)"/>
<path d="M0,0 L33,0 L33,1 L39,1 L39,2 L43,2 L43,3 L50,3 L50,4 L54,4 L54,5 L56,5 L56,6 L58,6 L58,7 L62,7 L62,8 L64,8 L64,9 L67,9 L67,10 L69,10 L69,11 L73,11 L73,12 L75,12 L75,13 L76,13 L76,14 L78,14 L78,15 L79,15 L79,16 L82,16 L82,17 L83,17 L83,18 L84,18 L84,19 L86,19 L86,20 L88,20 L88,21 L90,21 L90,22 L92,22 L92,23 L93,23 L93,24 L95,24 L95,25 L96,25 L96,26 L97,26 L97,27 L98,27 L98,28 L99,28 L99,29 L101,29 L101,30 L102,30 L102,31 L103,31 L103,32 L104,32 L104,33 L105,33 L105,34 L106,34 L106,35 L107,35 L107,36 L109,36 L109,37 L110,37 L110,38 L111,38 L111,39 L112,39 L112,40 L113,40 L113,41 L114,41 L114,42 L115,42 L115,44 L116,44 L116,45 L117,45 L117,46 L118,46 L118,47 L119,47 L119,48 L120,48 L120,50 L121,50 L121,51 L122,51 L122,52 L123,52 L123,54 L124,54 L124,55 L125,55 L125,56 L126,56 L126,57 L127,57 L127,58 L128,58 L128,60 L129,60 L129,62 L130,62 L130,64 L131,64 L131,65 L132,65 L132,67 L133,67 L133,69 L134,69 L134,71 L135,71 L135,73 L136,73 L136,74 L137,74 L137,76 L138,76 L138,77 L139,77 L139,80 L140,80 L140,83 L141,83 L141,85 L142,85 L142,89 L143,89 L143,91 L144,91 L144,95 L145,95 L145,97 L146,97 L146,100 L147,100 L147,107 L148,107 L148,113 L149,113 L149,118 L150,118 L150,151 L149,151 L149,157 L148,157 L148,161 L147,161 L147,168 L146,168 L146,172 L145,172 L145,174 L144,174 L144,176 L143,176 L143,180 L142,180 L142,182 L141,182 L141,185 L140,185 L140,187 L139,187 L139,191 L138,191 L138,193 L137,193 L137,194 L136,194 L136,196 L135,196 L135,197 L134,197 L134,200 L133,200 L133,201 L132,201 L132,202 L131,202 L131,204 L130,204 L130,206 L129,206 L129,208 L128,208 L128,210 L127,210 L127,211 L126,211 L126,213 L125,213 L125,214 L124,214 L124,215 L123,215 L123,216 L122,216 L122,217 L121,217 L121,219 L120,219 L120,220 L119,220 L119,221 L118,221 L118,222 L117,222 L117,223 L116,223 L116,224 L115,224 L115,225 L114,225 L114,227 L113,227 L113,228 L112,228 L112,229 L111,229 L111,230 L110,230 L110,231 L109,231 L109,232 L108,232 L108,233 L106,233 L106,234 L105,234 L105,235 L104,235 L104,236 L103,236 L103,237 L102,237 L102,238 L100,238 L100,239 L99,239 L99,240 L98,240 L98,241 L96,241 L96,242 L95,242 L95,243 L94,243 L94,244 L93,244 L93,245 L92,245 L92,246 L90,246 L90,247 L88,247 L88,248 L86,248 L86,249 L85,249 L85,250 L83,250 L83,251 L81,251 L81,252 L79,252 L79,253 L77,253 L77,254 L76,254 L76,255 L74,255 L74,256 L73,256 L73,257 L70,257 L70,258 L67,258 L67,259 L65,259 L65,260 L61,260 L61,261 L59,261 L59,262 L55,262 L55,263 L53,263 L53,264 L50,264 L50,265 L43,265 L43,266 L37,266 L37,267 L32,267 L32,268 L-1,268 L-1,267 L-7,267 L-7,266 L-11,266 L-11,265 L-18,265 L-18,264 L-22,264 L-22,263 L-24,263 L-24,262 L-26,262 L-26,261 L-30,261 L-30,260 L-32,260 L-32,259 L-35,259 L-35,258 L-37,258 L-37,257 L-41,257 L-41,256 L-43,256 L-43,255 L-44,255 L-44,254 L-46,254 L-46,253 L-47,253 L-47,252 L-50,252 L-50,251 L-51,251 L-51,250 L-52,250 L-52,249 L-54,249 L-54,248 L-56,248 L-56,247 L-58,247 L-58,246 L-60,246 L-60,245 L-61,245 L-61,244 L-63,244 L-63,243 L-64,243 L-64,242 L-65,242 L-65,241 L-66,241 L-66,240 L-67,240 L-67,239 L-69,239 L-69,238 L-70,238 L-70,237 L-71,237 L-71,236 L-72,236 L-72,235 L-73,235 L-73,234 L-74,234 L-74,233 L-75,233 L-75,232 L-77,232 L-77,231 L-78,231 L-78,230 L-79,230 L-79,229 L-80,229 L-80,228 L-81,228 L-81,227 L-82,227 L-82,226 L-83,226 L-83,224 L-84,224 L-84,223 L-85,223 L-85,222 L-86,222 L-86,221 L-87,221 L-87,220 L-88,220 L-88,218 L-89,218 L-89,217 L-90,217 L-90,216 L-91,216 L-91,214 L-92,214 L-92,213 L-93,213 L-93,212 L-94,212 L-94,211 L-95,211 L-95,210 L-96,210 L-96,208 L-97,208 L-97,206 L-98,206 L-98,204 L-99,204 L-99,203 L-100,203 L-100,201 L-101,201 L-101,199 L-102,199 L-102,197 L-103,197 L-103,195 L-104,195 L-104,194 L-105,194 L-105,192 L-106,192 L-106,191 L-107,191 L-107,188 L-108,188 L-108,185 L-109,185 L-109,183 L-110,183 L-110,179 L-111,179 L-111,177 L-112,177 L-112,173 L-113,173 L-113,171 L-114,171 L-114,168 L-115,168 L-115,161 L-116,161 L-116,155 L-117,155 L-117,150 L-118,150 L-118,117 L-117,117 L-117,111 L-116,111 L-116,107 L-115,107 L-115,100 L-114,100 L-114,96 L-113,96 L-113,94 L-112,94 L-112,92 L-111,92 L-111,88 L-110,88 L-110,86 L-109,86 L-109,83 L-108,83 L-108,81 L-107,81 L-107,77 L-106,77 L-106,75 L-105,75 L-105,74 L-104,74 L-104,72 L-103,72 L-103,71 L-102,71 L-102,68 L-101,68 L-101,67 L-100,67 L-100,66 L-99,66 L-99,64 L-98,64 L-98,62 L-97,62 L-97,60 L-96,60 L-96,58 L-95,58 L-95,57 L-94,57 L-94,55 L-93,55 L-93,54 L-92,54 L-92,53 L-91,53 L-91,52 L-90,52 L-90,51 L-89,51 L-89,49 L-88,49 L-88,48 L-87,48 L-87,47 L-86,47 L-86,46 L-85,46 L-85,45 L-84,45 L-84,44 L-83,44 L-83,43 L-82,43 L-82,41 L-81,41 L-81,40 L-80,40 L-80,39 L-79,39 L-79,38 L-78,38 L-78,37 L-77,37 L-77,36 L-76,36 L-76,35 L-74,35 L-74,34 L-73,34 L-73,33 L-72,33 L-72,32 L-71,32 L-71,31 L-70,31 L-70,30 L-68,30 L-68,29 L-67,29 L-67,28 L-66,28 L-66,27 L-64,27 L-64,26 L-63,26 L-63,25 L-62,25 L-62,24 L-61,24 L-61,23 L-60,23 L-60,22 L-58,22 L-58,21 L-56,21 L-56,20 L-54,20 L-54,19 L-53,19 L-53,18 L-51,18 L-51,17 L-49,17 L-49,16 L-47,16 L-47,15 L-45,15 L-45,14 L-44,14 L-44,13 L-42,13 L-42,12 L-41,12 L-41,11 L-38,11 L-38,10 L-35,10 L-35,9 L-33,9 L-33,8 L-29,8 L-29,7 L-27,7 L-27,6 L-23,6 L-23,5 L-21,5 L-21,4 L-18,4 L-18,3 L-11,3 L-11,2 L-5,2 L-5,1 L0,1 Z M2,12 L2,13 L-6,13 L-6,14 L-11,14 L-11,15 L-15,15 L-15,16 L-18,16 L-18,17 L-22,17 L-22,18 L-25,18 L-25,19 L-27,19 L-27,20 L-31,20 L-31,21 L-33,21 L-33,22 L-35,22 L-35,23 L-37,23 L-37,24 L-39,24 L-39,25 L-41,25 L-41,26 L-43,26 L-43,27 L-44,27 L-44,28 L-46,28 L-46,29 L-48,29 L-48,30 L-50,30 L-50,31 L-51,31 L-51,32 L-53,32 L-53,33 L-54,33 L-54,34 L-55,34 L-55,35 L-56,35 L-56,36 L-58,36 L-58,37 L-59,37 L-59,38 L-60,38 L-60,39 L-62,39 L-62,40 L-63,40 L-63,41 L-64,41 L-64,42 L-66,42 L-66,43 L-67,43 L-67,44 L-68,44 L-68,45 L-69,45 L-69,46 L-70,46 L-70,47 L-71,47 L-71,49 L-72,49 L-72,50 L-73,50 L-73,51 L-74,51 L-74,52 L-75,52 L-75,53 L-76,53 L-76,54 L-77,54 L-77,55 L-78,55 L-78,56 L-79,56 L-79,58 L-80,58 L-80,59 L-81,59 L-81,60 L-82,60 L-82,61 L-83,61 L-83,62 L-84,62 L-84,64 L-85,64 L-85,66 L-86,66 L-86,67 L-87,67 L-87,69 L-88,69 L-88,70 L-89,70 L-89,72 L-90,72 L-90,74 L-91,74 L-91,76 L-92,76 L-92,77 L-93,77 L-93,79 L-94,79 L-94,81 L-95,81 L-95,83 L-96,83 L-96,86 L-97,86 L-97,88 L-98,88 L-98,91 L-99,91 L-99,93 L-100,93 L-100,96 L-101,96 L-101,99 L-102,99 L-102,103 L-103,103 L-103,107 L-104,107 L-104,112 L-105,112 L-105,118 L-106,118 L-106,148 L-105,148 L-105,156 L-104,156 L-104,161 L-103,161 L-103,165 L-102,165 L-102,168 L-101,168 L-101,172 L-100,172 L-100,175 L-99,175 L-99,177 L-98,177 L-98,181 L-97,181 L-97,183 L-96,183 L-96,185 L-95,185 L-95,187 L-94,187 L-94,189 L-93,189 L-93,191 L-92,191 L-92,193 L-91,193 L-91,194 L-90,194 L-90,196 L-89,196 L-89,198 L-88,198 L-88,200 L-87,200 L-87,201 L-86,201 L-86,203 L-85,203 L-85,204 L-84,204 L-84,205 L-83,205 L-83,206 L-82,206 L-82,208 L-81,208 L-81,209 L-80,209 L-80,210 L-79,210 L-79,212 L-78,212 L-78,213 L-77,213 L-77,214 L-76,214 L-76,216 L-75,216 L-75,217 L-74,217 L-74,218 L-73,218 L-73,219 L-72,219 L-72,220 L-71,220 L-71,221 L-69,221 L-69,222 L-68,222 L-68,223 L-67,223 L-67,224 L-66,224 L-66,225 L-65,225 L-65,226 L-64,226 L-64,227 L-63,227 L-63,228 L-62,228 L-62,229 L-60,229 L-60,230 L-59,230 L-59,231 L-58,231 L-58,232 L-57,232 L-57,233 L-56,233 L-56,234 L-54,234 L-54,235 L-52,235 L-52,236 L-51,236 L-51,237 L-49,237 L-49,238 L-48,238 L-48,239 L-46,239 L-46,240 L-44,240 L-44,241 L-42,241 L-42,242 L-41,242 L-41,243 L-39,243 L-39,244 L-37,244 L-37,245 L-35,245 L-35,246 L-32,246 L-32,247 L-30,247 L-30,248 L-27,248 L-27,249 L-25,249 L-25,250 L-22,250 L-22,251 L-19,251 L-19,252 L-15,252 L-15,253 L-11,253 L-11,254 L-6,254 L-6,255 L0,255 L0,256 L30,256 L30,255 L38,255 L38,254 L43,254 L43,253 L47,253 L47,252 L50,252 L50,251 L54,251 L54,250 L57,250 L57,249 L59,249 L59,248 L63,248 L63,247 L65,247 L65,246 L67,246 L67,245 L69,245 L69,244 L71,244 L71,243 L73,243 L73,242 L75,242 L75,241 L76,241 L76,240 L78,240 L78,239 L80,239 L80,238 L82,238 L82,237 L83,237 L83,236 L85,236 L85,235 L86,235 L86,234 L87,234 L87,233 L88,233 L88,232 L90,232 L90,231 L91,231 L91,230 L92,230 L92,229 L94,229 L94,228 L95,228 L95,227 L96,227 L96,226 L98,226 L98,225 L99,225 L99,224 L100,224 L100,223 L101,223 L101,222 L102,222 L102,221 L103,221 L103,219 L104,219 L104,218 L105,218 L105,217 L106,217 L106,216 L107,216 L107,215 L108,215 L108,214 L109,214 L109,213 L110,213 L110,212 L111,212 L111,210 L112,210 L112,209 L113,209 L113,208 L114,208 L114,207 L115,207 L115,206 L116,206 L116,204 L117,204 L117,202 L118,202 L118,201 L119,201 L119,199 L120,199 L120,198 L121,198 L121,196 L122,196 L122,194 L123,194 L123,192 L124,192 L124,191 L125,191 L125,189 L126,189 L126,187 L127,187 L127,185 L128,185 L128,182 L129,182 L129,180 L130,180 L130,177 L131,177 L131,175 L132,175 L132,172 L133,172 L133,169 L134,169 L134,165 L135,165 L135,161 L136,161 L136,156 L137,156 L137,150 L138,150 L138,120 L137,120 L137,112 L136,112 L136,107 L135,107 L135,103 L134,103 L134,100 L133,100 L133,96 L132,96 L132,93 L131,93 L131,91 L130,91 L130,87 L129,87 L129,85 L128,85 L128,83 L127,83 L127,81 L126,81 L126,79 L125,79 L125,77 L124,77 L124,75 L123,75 L123,74 L122,74 L122,72 L121,72 L121,70 L120,70 L120,68 L119,68 L119,67 L118,67 L118,65 L117,65 L117,64 L116,64 L116,63 L115,63 L115,62 L114,62 L114,60 L113,60 L113,59 L112,59 L112,58 L111,58 L111,56 L110,56 L110,55 L109,55 L109,54 L108,54 L108,52 L107,52 L107,51 L106,51 L106,50 L105,50 L105,49 L104,49 L104,48 L103,48 L103,47 L101,47 L101,46 L100,46 L100,45 L99,45 L99,44 L98,44 L98,43 L97,43 L97,42 L96,42 L96,41 L95,41 L95,40 L94,40 L94,39 L92,39 L92,38 L91,38 L91,37 L90,37 L90,36 L89,36 L89,35 L88,35 L88,34 L86,34 L86,33 L84,33 L84,32 L83,32 L83,31 L81,31 L81,30 L80,30 L80,29 L78,29 L78,28 L76,28 L76,27 L74,27 L74,26 L73,26 L73,25 L71,25 L71,24 L69,24 L69,23 L67,23 L67,22 L64,22 L64,21 L62,21 L62,20 L59,20 L59,19 L57,19 L57,18 L54,18 L54,17 L51,17 L51,16 L47,16 L47,15 L43,15 L43,14 L38,14 L38,13 L32,13 L32,12 Z " fill="#F4FFC2" transform="translate(169,26)"/>
<path d="M0,0 L13,0 L13,1 L16,1 L16,2 L17,2 L17,3 L19,3 L19,4 L21,4 L21,5 L22,5 L22,6 L23,6 L23,7 L24,7 L24,8 L25,8 L25,9 L26,9 L26,10 L27,10 L27,11 L28,11 L28,12 L29,12 L29,13 L30,13 L30,14 L31,14 L31,17 L32,17 L32,18 L33,18 L33,19 L34,19 L34,21 L35,21 L35,22 L36,22 L36,23 L37,23 L37,25 L38,25 L38,27 L39,27 L39,29 L40,29 L40,31 L41,31 L41,36 L42,36 L42,42 L43,42 L43,52 L42,52 L42,55 L41,55 L41,58 L40,58 L40,61 L39,61 L39,65 L38,65 L38,67 L37,67 L37,68 L36,68 L36,69 L35,69 L35,70 L34,70 L34,71 L33,71 L33,72 L32,72 L32,73 L31,73 L31,74 L29,74 L29,75 L28,75 L28,76 L25,76 L25,77 L23,77 L23,78 L18,78 L18,79 L14,79 L14,80 L-3,80 L-3,79 L-5,79 L-5,78 L-10,78 L-10,77 L-12,77 L-12,76 L-15,76 L-15,75 L-16,75 L-16,74 L-17,74 L-17,73 L-19,73 L-19,72 L-20,72 L-20,71 L-21,71 L-21,70 L-22,70 L-22,69 L-23,69 L-23,68 L-24,68 L-24,66 L-25,66 L-25,65 L-26,65 L-26,61 L-27,61 L-27,58 L-28,58 L-28,55 L-29,55 L-29,52 L-30,52 L-30,42 L-29,42 L-29,36 L-28,36 L-28,32 L-27,32 L-27,29 L-26,29 L-26,27 L-25,27 L-25,25 L-24,25 L-24,24 L-23,24 L-23,22 L-22,22 L-22,21 L-21,21 L-21,19 L-20,19 L-20,18 L-19,18 L-19,16 L-18,16 L-18,15 L-17,15 L-17,13 L-16,13 L-16,12 L-15,12 L-15,11 L-14,11 L-14,10 L-13,10 L-13,9 L-12,9 L-12,8 L-11,8 L-11,7 L-10,7 L-10,6 L-9,6 L-9,5 L-7,5 L-7,4 L-6,4 L-6,3 L-4,3 L-4,2 L-2,2 L-2,1 L0,1 Z " fill="#96C3E3" transform="translate(181,165)"/>
<path d="M0,0 L3,0 L3,27 L2,27 L2,28 L-21,28 L-21,22 L-20,22 L-20,18 L-19,18 L-19,16 L-18,16 L-18,14 L-17,14 L-17,12 L-16,12 L-16,11 L-15,11 L-15,9 L-14,9 L-14,7 L-13,7 L-13,6 L-12,6 L-12,5 L-11,5 L-11,4 L-9,4 L-9,3 L-7,3 L-7,2 L-4,2 L-4,1 L0,1 Z " fill="#96C3E3" transform="translate(182,85)"/>
<path d="M0,0 L3,0 L3,1 L6,1 L6,2 L9,2 L9,3 L12,3 L12,4 L13,4 L13,5 L14,5 L14,6 L16,6 L16,7 L17,7 L17,8 L18,8 L18,10 L19,10 L19,12 L20,12 L20,14 L21,14 L21,16 L22,16 L22,18 L23,18 L23,21 L24,21 L24,28 L1,28 L1,27 L0,27 Z " fill="#96C3E3" transform="translate(188,85)"/>
<path d="M0,0 L23,0 L23,3 L22,3 L22,7 L21,7 L21,10 L20,10 L20,12 L19,12 L19,14 L18,14 L18,17 L17,17 L17,19 L16,19 L16,20 L15,20 L15,21 L14,21 L14,22 L13,22 L13,23 L11,23 L11,24 L10,24 L10,25 L8,25 L8,26 L5,26 L5,27 L3,27 L3,28 L-1,28 L-1,1 L0,1 Z " fill="#96C3E3" transform="translate(189,116)"/>
<path d="M0,0 L23,0 L23,1 L24,1 L24,28 L21,28 L21,27 L18,27 L18,26 L15,26 L15,25 L13,25 L13,24 L12,24 L12,23 L10,23 L10,22 L9,22 L9,21 L8,21 L8,20 L7,20 L7,18 L6,18 L6,17 L5,17 L5,14 L4,14 L4,12 L3,12 L3,10 L2,10 L2,7 L1,7 L1,3 L0,3 Z " fill="#96C3E3" transform="translate(161,116)"/>
<path d="M0,0 L4,0 L4,1 L6,1 L6,2 L7,2 L7,3 L8,3 L8,8 L7,8 L7,9 L6,9 L6,10 L5,10 L5,11 L0,11 L0,10 L-1,10 L-1,9 L-2,9 L-2,8 L-3,8 L-3,3 L-2,3 L-2,2 L-1,2 L-1,1 L0,1 Z " fill="#ffffff" transform="translate(208,206)"/>
</svg>
